# xmcd
#
# Track frame offsets:
#	150
#	13422
#	25535
#	39137
#	50205
#	59802
#	72205
#	82552
#	99712
#	113500
#	125597
#	140877
#
# Disc length: 2034 seconds
#
# Revision: 1
# Processed by: cddbd v1.5.2PL0 Copyright (c) Steve Scherf et al.
# Submitted via: audiograbber 1.83.01
#
DISCID=a307f00c
DTITLE=Country Showcase - Country Showcase
DYEAR=1900
DGENRE=
TTITLE0=Country Sunshine - Tracy Miller
TTITLE1=Candy Candy - Country Showcase
TTITLE2=Susan Flor - Country Showcase
TTITLE3=Getaway - Alice Straw
TTITLE4=Feel Bad Hurt - Country Showcase
TTITLE5=What Now Mrs Jones - Country Showcase
TTITLE6=It´s Cold San Fransisco - Country Showcase
TTITLE7=A Tribute To Patsy Cline - Country Showcase
TTITLE8=Sweet Yesterdays - Country Showcase
TTITLE9=Searching - Country Showcase
TTITLE10=Jambalaya - Country Showcase
TTITLE11=Souvineer From Niagra Falls - Country Showcase
EXTD=
EXTT0=
EXTT1=
EXTT2=
EXTT3=
EXTT4=
EXTT5=
EXTT6=
EXTT7=
EXTT8=
EXTT9=
EXTT10=
EXTT11=
PLAYORDER=
